<svg xmlns="http://www.w3.org/2000/svg" width="32" height="32" viewBox="0 0 32 32">
  <path fill="#f5f5f5" d="M16,1.76C8.15,1.76,1.76,8.15,1.76,16c0,7.85,6.39,14.24,14.24,14.24c7.85,0,14.24-6.39,14.24-14.24C30.24,8.15,23.85,1.76,16,1.76z M6.76,16c0-1,0.17-1.96,0.46-2.87h17.57c0.3,0.9,0.46,1.87,0.46,2.87c0,1-0.17,1.96-0.46,2.87H7.22C6.92,17.96,6.76,17,6.76,16z M16,6.76c3.31,0,6.21,1.75,7.84,4.38H8.16C9.79,8.51,12.69,6.76,16,6.76z M16,25.24c-3.31,0-6.21-1.75-7.84-4.38h15.69C22.21,23.49,19.31,25.24,16,25.24z"/>
</svg>