<svg xmlns="http://www.w3.org/2000/svg" fill-rule="evenodd" width="64" height="64" viewBox="0 0 64 64">
  <defs>
    <linearGradient id="helixGradBottom" x1="12.33" y1="23.31" x2="41.70" y2="52.68" gradientUnits="userSpaceOnUse">
      <stop offset="0" stop-color="#6b6b6b" stop-opacity="1" />
      <stop offset="1" stop-color="#cbcbcb" stop-opacity="1" />
    </linearGradient>

    <linearGradient id="helixGradMiddle" x1="12.33" y1="12.31" x2="41.70" y2="41.68" gradientUnits="userSpaceOnUse">
      <stop offset="0" stop-color="#6b6b6b" stop-opacity="1" />
      <stop offset="1" stop-color="#cbcbcb" stop-opacity="1" />
    </linearGradient>

    <linearGradient id="helixGradTop" x1="12.33" y1="1.31" x2="41.70" y2="30.68" gradientUnits="userSpaceOnUse">
      <stop offset="0" stop-color="#6b6b6b" stop-opacity="1" />
      <stop offset="1" stop-color="#cbcbcb" stop-opacity="1" />
    </linearGradient>
  </defs>

  <path d="M32,28.5c14.5,0,26.3,6.5,26.3,14.5c0,8-11.8,14.5-26.3,14.5S5.7,51,5.7,43S17.5,28.5,32,28.5z M32,35.6 c-7.4,0-13.5,3.3-13.5,7.4s6,7.4,13.5,7.4s13.5-3.3,13.5-7.4S39.4,35.6,32,35.6z" fill="url(#helixGradBottom)" stroke="#707070" stroke-width="3.06"/>

  <path d="M32,17.5c14.5,0,26.3,6.5,26.3,14.5c0,8-11.8,14.5-26.3,14.5S5.7,40,5.7,32S17.5,17.5,32,17.5z M32,24.6 c-7.4,0-13.5,3.3-13.5,7.4s6,7.4,13.5,7.4s13.5-3.3,13.5-7.4S39.4,24.6,32,24.6z" fill="url(#helixGradMiddle)" stroke="#707070" stroke-width="3.06"/>

  <path d="M32,6.5c14.5,0,26.3,6.5,26.3,14.5c0,8-11.8,14.5-26.3,14.5S5.7,29,5.7,21S17.5,6.5,32,6.5z M32,13.6 c-7.4,0-13.5,3.3-13.5,7.4s6,7.4,13.5,7.4s13.5-3.3,13.5-7.4S39.4,13.6,32,13.6z" fill="url(#helixGradTop)" stroke="#707070" stroke-width="3.06"/>
</svg>
