<svg xmlns="http://www.w3.org/2000/svg" width="32" height="32" viewBox="0 0 32 32">
  <path fill="#F5F5F5" d="M3.9,4.8v8.4h8.4h1l-0.7-0.7l-2.5-2.5c0.2-0.2,0.3-0.3,0.5-0.5c0.2-0.2,0.5-0.4,0.7-0.5l0,0
	c1.3-0.8,2.8-1.3,4.5-1.3h0v0c2.3,0,4.3,0.9,5.8,2.4s2.4,3.5,2.4,5.8h0v0h0c0,2.3-0.9,4.3-2.4,5.8c-1.5,1.5-3.5,2.4-5.8,2.4v0h0v0
	c-0.8,0-1.6-0.1-2.3-0.3l0,0c-0.4-0.1-0.8-0.3-1.2-0.5c-2-1-3.6-2.7-4.3-4.9L8,18.2l-5.1,0L3,18.7l0,0v0c0.2,0.8,0.4,1.6,0.8,2.4v0
	c0.3,0.8,0.7,1.5,1.2,2.2c2.4,3.5,6.4,5.8,10.9,5.8h0v0c3.6,0,6.9-1.5,9.3-3.9v0c2.4-2.4,3.9-5.7,3.9-9.3h0v0h0
	c0-3.6-1.5-6.9-3.9-9.3l0,0c-2.4-2.4-5.7-3.9-9.3-3.9v0h0v0c-1.9,0-3.6,0.4-5.3,1.1C10.4,4,10.1,4.2,9.9,4.3
	C8.7,4.9,7.6,5.7,6.7,6.6L4.6,4.5L3.9,3.8V4.8L3.9,4.8L3.9,4.8z"/></svg>