<svg xmlns="http://www.w3.org/2000/svg" fill-rule="evenodd" width="64" height="64" viewBox="0 0 64 64">
  <defs>
    <linearGradient id="gridToolGrad" x1="30%" x2="75%" y1="30%" y2="75%" gradientUnits="userSpaceOnUse">
      <stop offset="0" stop-color="#6b6b6b" stop-opacity="1" />
      <stop offset="1" stop-color="#cbcbcb" stop-opacity="1" />
    </linearGradient>
  </defs>
  <path  d="M26.5,5.7c3.1-3,8-3,11,0l20.6,20.7c3.1,3,3.1,8,0,11.3L37.4,58.3c-3.1,3-8,3-11,0L5.9,37.6
	c-3.1-3-3.1-8,0-11.3L26.5,5.7z M36.8,21.1c-3-2.9-7.8-2.9-10.7,0L21,26c-3,2.9-3,7.7,0,10.8l5,4.9c3,2.9,7.8,2.9,10.7,0l5-4.9
	c3-2.9,3-7.7,0-10.8L36.8,21.1z"
    fill="url(#gridToolGrad)" 
    stroke="#707070" 
    stroke-width="3.06" 
    clip-rule="evenodd" 
  />
</svg>