<?xml version="1.0" encoding="utf-8"?>
<!-- Generator: Adobe Illustrator 23.0.6, SVG Export Plug-In . SVG Version: 6.00 Build 0)  -->
<svg version="1.1" id="katman_1" xmlns="http://www.w3.org/2000/svg" xmlns:xlink="http://www.w3.org/1999/xlink" x="0px" y="0px"
	 viewBox="0 0 64 64" style="enable-background:new 0 0 64 64;" xml:space="preserve">
<style type="text/css">
	.st0{fill-rule:evenodd;clip-rule:evenodd;fill:url(#SVGID_1_);}
	.st1{fill:none;stroke:#707070;stroke-width:3.06;}
</style>
<g>
	
		<linearGradient id="SVGID_1_" gradientUnits="userSpaceOnUse" x1="21.7921" y1="747.7921" x2="44.7642" y2="770.7642" gradientTransform="matrix(1 0 0 1 0 -726)">
		<stop  offset="0" style="stop-color:#6B6B6B"/>
		<stop  offset="1" style="stop-color:#CBCBCB"/>
	</linearGradient>
	<path class="st0" d="M26.7,10.4c3-2.5,7.8-2.5,10.7,0l20,17c3,2.5,3,6.6,0,9.2l-20,17c-3,2.5-7.8,2.5-10.7,0l-20-17
		c-3-2.5-3-6.6,0-9.2L26.7,10.4z M37.5,23.2c-3-2.5-7.8-2.5-10.7,0l-5,4.2c-3,2.5-3,6.6,0,9.2l5,4.2c3,2.5,7.8,2.5,10.7,0l5-4.2
		c3-2.5,3-6.6,0-9.2L37.5,23.2z"/>
	<path class="st1" d="M26.7,10.4c3-2.5,7.8-2.5,10.7,0l20,17c3,2.5,3,6.6,0,9.2l-20,17c-3,2.5-7.8,2.5-10.7,0l-20-17
		c-3-2.5-3-6.6,0-9.2L26.7,10.4z M37.5,23.2c-3-2.5-7.8-2.5-10.7,0l-5,4.2c-3,2.5-3,6.6,0,9.2l5,4.2c3,2.5,7.8,2.5,10.7,0l5-4.2
		c3-2.5,3-6.6,0-9.2L37.5,23.2z"/>
</g>
</svg>
