<?xml version="1.0" encoding="utf-8"?>
<!-- Generator: Adobe Illustrator 23.0.6, SVG Export Plug-In . SVG Version: 6.00 Build 0)  -->
<svg version="1.1" id="katman_1" xmlns="http://www.w3.org/2000/svg" xmlns:xlink="http://www.w3.org/1999/xlink" x="0px" y="0px"
	 viewBox="0 0 64 64" style="enable-background:new 0 0 64 64;" xml:space="preserve">
<style type="text/css">
	.st0{fill-rule:evenodd;clip-rule:evenodd;fill:url(#SVGID_1_);}
	.st1{fill:none;stroke:#707070;stroke-width:3.06;}
	.st2{fill-rule:evenodd;clip-rule:evenodd;fill:url(#SVGID_2_);}
	.st3{fill-rule:evenodd;clip-rule:evenodd;fill:url(#SVGID_3_);}
</style>
<g>
	
		<linearGradient id="SVGID_1_" gradientUnits="userSpaceOnUse" x1="21.9698" y1="760.9478" x2="44.5625" y2="783.5405" gradientTransform="matrix(1 0 0 1 0 -726)">
		<stop  offset="0" style="stop-color:#6B6B6B"/>
		<stop  offset="1" style="stop-color:#CBCBCB"/>
	</linearGradient>
	<path class="st0" d="M32,31.7c14.5,0,26.3,5.9,26.3,13.3c0,7.3-11.8,13.3-26.3,13.3S5.7,52.3,5.7,45S17.5,31.7,32,31.7z M32,38.2
		c-7.4,0-13.5,3-13.5,6.8s6,6.8,13.5,6.8s13.5-3,13.5-6.8S39.4,38.2,32,38.2z"/>
	<path class="st1" d="M32,31.7c14.5,0,26.3,5.9,26.3,13.3c0,7.3-11.8,13.3-26.3,13.3S5.7,52.3,5.7,45S17.5,31.7,32,31.7z M32,38.2
		c-7.4,0-13.5,3-13.5,6.8s6,6.8,13.5,6.8s13.5-3,13.5-6.8S39.4,38.2,32,38.2z"/>
</g>
<g>
	
		<linearGradient id="SVGID_2_" gradientUnits="userSpaceOnUse" x1="21.9273" y1="747.9273" x2="44.52" y2="770.52" gradientTransform="matrix(1 0 0 1 0 -726)">
		<stop  offset="0" style="stop-color:#6B6B6B"/>
		<stop  offset="1" style="stop-color:#CBCBCB"/>
	</linearGradient>
	<path class="st2" d="M32,18.7c14.5,0,26.3,5.9,26.3,13.3c0,7.3-11.8,13.3-26.3,13.3S5.7,39.4,5.7,32C5.7,24.6,17.5,18.7,32,18.7z
		 M32,25.1c-7.4,0-13.5,3-13.5,6.8s6,6.8,13.5,6.8s13.5-3,13.5-6.8S39.4,25.1,32,25.1z"/>
	<path class="st1" d="M32,18.7c14.5,0,26.3,5.9,26.3,13.3c0,7.3-11.8,13.3-26.3,13.3S5.7,39.4,5.7,32C5.7,24.6,17.5,18.7,32,18.7z
		 M32,25.1c-7.4,0-13.5,3-13.5,6.8s6,6.8,13.5,6.8s13.5-3,13.5-6.8S39.4,25.1,32,25.1z"/>
</g>
<g>
	
		<linearGradient id="SVGID_3_" gradientUnits="userSpaceOnUse" x1="21.9333" y1="735.2333" x2="44.526" y2="757.826" gradientTransform="matrix(1 0 0 1 0 -726)">
		<stop  offset="0" style="stop-color:#6B6B6B"/>
		<stop  offset="1" style="stop-color:#CBCBCB"/>
	</linearGradient>
	<path class="st3" d="M32,6c14.5,0,26.3,5.9,26.3,13.3c0,7.3-11.8,13.3-26.3,13.3S5.7,26.7,5.7,19.3C5.7,11.9,17.5,6,32,6z M32,12.5
		c-7.4,0-13.5,3-13.5,6.8S24.6,26,32,26s13.5-3,13.5-6.8S39.4,12.5,32,12.5z"/>
	<path class="st1" d="M32,6c14.5,0,26.3,5.9,26.3,13.3c0,7.3-11.8,13.3-26.3,13.3S5.7,26.7,5.7,19.3C5.7,11.9,17.5,6,32,6z M32,12.5
		c-7.4,0-13.5,3-13.5,6.8S24.6,26,32,26s13.5-3,13.5-6.8S39.4,12.5,32,12.5z"/>
</g>
</svg>
